<svg width="53" height="45" viewBox="0 0 53 45" fill="none" xmlns="http://www.w3.org/2000/svg">
<g filter="url(#filter0_d_91_357)">
<path d="M46.3125 20.9099C47.6932 20.9099 48.8125 19.7906 48.8125 18.4099C48.8125 17.0292 47.6932 15.9099 46.3125 15.9099V18.4099V20.9099ZM4.73223 16.6421C3.75592 17.6185 3.75592 19.2014 4.73223 20.1777L20.6421 36.0876C21.6184 37.0639 23.2014 37.0639 24.1777 36.0876C25.154 35.1113 25.154 33.5284 24.1777 32.552L10.0355 18.4099L24.1777 4.26778C25.154 3.29147 25.154 1.70855 24.1777 0.732243C23.2014 -0.244068 21.6184 -0.244068 20.6421 0.732243L4.73223 16.6421ZM46.3125 18.4099V15.9099L6.5 15.9099V18.4099V20.9099L46.3125 20.9099V18.4099Z" fill="black"/>
</g>
<defs>
<filter id="filter0_d_91_357" x="0" y="0" width="52.8125" height="44.8198" filterUnits="userSpaceOnUse" color-interpolation-filters="sRGB">
<feFlood flood-opacity="0" result="BackgroundImageFix"/>
<feColorMatrix in="SourceAlpha" type="matrix" values="0 0 0 0 0 0 0 0 0 0 0 0 0 0 0 0 0 0 127 0" result="hardAlpha"/>
<feOffset dy="4"/>
<feGaussianBlur stdDeviation="2"/>
<feComposite in2="hardAlpha" operator="out"/>
<feColorMatrix type="matrix" values="0 0 0 0 0 0 0 0 0 0 0 0 0 0 0 0 0 0 0.25 0"/>
<feBlend mode="normal" in2="BackgroundImageFix" result="effect1_dropShadow_91_357"/>
<feBlend mode="normal" in="SourceGraphic" in2="effect1_dropShadow_91_357" result="shape"/>
</filter>
</defs>
</svg>
